<svg width="24" height="24" viewBox="0 0 24 24" fill="none" xmlns="http://www.w3.org/2000/svg">
<path d="M10.6125 12.0252V12.8193C10.6125 13.1309 10.8629 13.3838 11.1714 13.3838C11.4799 13.3838 11.7303 13.1309 11.7303 12.8193V11.7031C11.7303 11.4968 11.6207 11.3169 11.4575 11.2183L11.4553 11.2168L10.0082 10.355C10.2072 9.93654 10.3495 9.45106 10.4098 8.93999L10.4121 8.91816H11.9083C12.2168 8.91816 12.4672 8.66527 12.4672 8.35366C12.4672 8.04205 12.2168 7.78915 11.9083 7.78915H10.4121C10.3517 7.2683 10.2146 6.79336 10.0119 6.35605L10.0238 6.38465L11.465 5.4837C11.6252 5.38284 11.7295 5.20521 11.7295 5.00349V3.14212C11.7295 2.83051 11.4791 2.57761 11.1706 2.57761C10.8621 2.57761 10.6118 2.83051 10.6118 3.14212V4.68887L9.43666 5.42424C8.79434 4.60833 7.81818 4.08447 6.72057 4.06565H6.71759C5.62221 4.08372 4.65052 4.60231 4.01416 5.40391L4.00894 5.41069L2.85469 4.68887V3.14212C2.85469 2.83051 2.60432 2.57761 2.29583 2.57761C1.98733 2.57761 1.73696 2.83051 1.73696 3.14212V5.00349C1.73696 5.20521 1.84203 5.38209 1.99925 5.48219L2.00149 5.4837L3.41878 6.3696C3.22429 6.78282 3.08495 7.26303 3.02608 7.76732L3.02384 7.78915H1.55887C1.25037 7.78915 1 8.04205 1 8.35366C1 8.66527 1.25037 8.91816 1.55887 8.91816H3.02384C3.08644 9.45708 3.23174 9.94707 3.44635 10.3979L3.43443 10.3701L2.01192 11.2176C1.8465 11.3177 1.73696 11.4976 1.73696 11.7038V12.82C1.73696 13.1317 1.98733 13.3845 2.29583 13.3845C2.60432 13.3845 2.85469 13.1317 2.85469 12.82V12.026L4.02981 11.3252C4.67139 12.1178 5.63413 12.6243 6.71461 12.6409H6.71759C7.80626 12.6236 8.77347 12.1118 9.41058 11.3185L9.4158 11.3117L10.6125 12.0252ZM6.71833 11.5119C5.23398 11.3636 4.0842 10.1089 4.0842 8.58322C4.0842 8.50269 4.08718 8.42215 4.09389 8.34312L4.09314 8.35366C4.08718 8.28516 4.0842 8.20463 4.0842 8.12334C4.0842 6.59766 5.23398 5.34295 6.70641 5.19542L6.71833 5.19467C8.20343 5.34295 9.3532 6.59766 9.3532 8.12409C9.3532 8.20463 9.35022 8.28516 9.34352 8.36419L9.34426 8.35366C9.35022 8.42215 9.3532 8.50269 9.3532 8.58322C9.3532 10.1097 8.20268 11.3644 6.73025 11.5111L6.71833 11.5119ZM5.11997 3.90834H8.31371C8.62221 3.90834 8.87258 3.65544 8.87258 3.34384C8.8763 3.29567 8.87854 3.23997 8.87854 3.18352C8.87854 1.97773 7.91058 1 6.71684 1C5.5231 1 4.55514 1.97773 4.55514 3.18352C4.55514 3.23997 4.55738 3.29567 4.5611 3.35136L4.56036 3.34384C4.56036 3.65544 4.81148 3.90834 5.11997 3.90834ZM7.66394 2.77933H5.76975C5.8994 2.36761 6.27422 2.07482 6.71684 2.07482C7.15946 2.07482 7.53428 2.36761 7.6617 2.77255L7.66394 2.77933ZM22.6759 13.3146C22.6066 13.2814 22.5261 13.2626 22.4404 13.2626C22.2176 13.2626 22.0246 13.3936 21.9337 13.5833L21.9322 13.587L21.2988 14.9584L19.9642 15.1187C19.6148 13.5795 18.2705 12.449 16.6654 12.449C16.1259 12.449 15.6162 12.5769 15.1639 12.8035L15.1833 12.7945C15.1654 12.8027 15.1498 12.8155 15.1319 12.8238L14.4128 11.7159L15.0462 10.3445C15.079 10.2745 15.0984 10.1924 15.0984 10.1066C15.0984 9.79503 14.848 9.54213 14.5395 9.54213C14.3167 9.54213 14.1244 9.67385 14.0343 9.86503L14.0328 9.8688L13.269 11.5247C13.2362 11.5947 13.2168 11.6767 13.2168 11.7625C13.2168 11.8777 13.2511 11.9846 13.31 12.0741L13.3085 12.0719L14.199 13.444C13.8383 13.7534 13.532 14.1124 13.2846 14.5121L13.2735 14.5316L11.9806 13.922C11.9113 13.8888 11.8301 13.8693 11.7444 13.8693C11.4359 13.8693 11.1855 14.1222 11.1855 14.4338C11.1855 14.6588 11.3159 14.853 11.5045 14.9441L11.5082 14.9456L12.804 15.556C12.6587 15.9835 12.5753 16.4765 12.5753 16.9891C12.5753 16.9944 12.5753 17.0004 12.5753 17.0057L10.9709 17.1622C10.7697 17.1826 10.6021 17.3075 10.5201 17.4821L10.5186 17.4859L10.0604 18.4794C10.0276 18.5494 10.0082 18.6315 10.0082 18.7173C10.0082 18.9423 10.1386 19.1365 10.3279 19.2276L10.3316 19.2291C10.4001 19.2622 10.4799 19.2818 10.5648 19.2818H10.5678C10.7906 19.2818 10.9836 19.1501 11.073 18.9589L11.0745 18.9551L11.3987 18.2536L12.7168 18.1242C12.9791 19.1433 13.6572 19.966 14.5514 20.4115L14.5715 20.4206C14.9791 20.6163 15.4583 20.7307 15.9627 20.7307C15.965 20.7307 15.968 20.7307 15.9702 20.7307C16.5335 20.7254 17.0648 20.5937 17.541 20.3634L17.5186 20.3732L18.2809 21.4946L17.9575 22.1976C17.9247 22.2676 17.9054 22.3497 17.9054 22.4355C17.9054 22.6605 18.0358 22.8547 18.225 22.9458L18.2288 22.9473C18.2966 22.9804 18.3763 23 18.4605 23H18.4642C18.687 23 18.88 22.8683 18.9694 22.6771L18.9709 22.6733L19.4292 21.6798C19.462 21.6098 19.4814 21.5278 19.4814 21.4412C19.4814 21.3223 19.4449 21.2116 19.383 21.1206L19.3845 21.1228L18.4627 19.765C18.8308 19.4519 19.1438 19.0883 19.3957 18.6826L19.4069 18.6638L20.7191 19.2825C20.7884 19.3156 20.8696 19.3352 20.9545 19.3352C21.263 19.3352 21.5134 19.0823 21.5134 18.7707C21.5134 18.5457 21.383 18.3507 21.1937 18.2604L21.19 18.2589L19.8674 17.6349C20.0082 17.2187 20.0917 16.7385 20.0961 16.2395V16.2372L21.7407 16.04C21.9367 16.0167 22.0999 15.8932 22.1803 15.7231L22.1818 15.7194L22.9471 14.0642C22.9806 13.9942 23 13.9114 23 13.8249C23 13.5998 22.8696 13.4056 22.6811 13.3146L22.6773 13.313L22.6759 13.3146ZM15.041 19.3977C14.196 18.8874 13.6386 17.9676 13.6386 16.9169C13.6386 16.396 13.7757 15.9068 14.0156 15.4853L14.0082 15.4996C14.3435 14.7582 14.9136 14.1741 15.6207 13.8339L15.6408 13.8249C15.9501 13.6781 16.3115 13.5908 16.6937 13.5885H16.699C17.0365 13.5885 17.3562 13.6645 17.6423 13.8L17.6289 13.794C18.4739 14.3051 19.0313 15.2248 19.0313 16.2756C19.0313 16.7964 18.8942 17.2849 18.655 17.7064L18.6624 17.6921C18.2466 18.794 17.2094 19.5633 15.994 19.5633C15.6528 19.5633 15.3249 19.5023 15.0216 19.3917L15.041 19.3977ZM16.7347 11.9808L19.576 13.3191C19.6453 13.3522 19.7265 13.3718 19.8122 13.3718C19.8808 13.3718 19.9456 13.3597 20.0067 13.3364L20.003 13.3379C20.1438 13.2852 20.2548 13.1813 20.3174 13.0496L20.3189 13.0458C20.4993 12.7357 20.6058 12.3639 20.6058 11.9658C20.6058 10.775 19.6498 9.80933 18.4709 9.80933C17.5537 9.80933 16.7712 10.3942 16.4694 11.2146L16.465 11.2296C16.4314 11.2996 16.4121 11.3817 16.4121 11.469C16.4121 11.694 16.5432 11.889 16.7325 11.9785L16.7362 11.9801L16.7347 11.9808ZM18.9002 11.0354C19.1319 11.1438 19.3107 11.3365 19.3987 11.5736L19.4009 11.5804C19.4382 11.6835 19.4605 11.8024 19.4605 11.9266C19.4605 11.959 19.459 11.9906 19.456 12.0222V12.0184L17.7981 11.2372C17.9732 11.0558 18.2176 10.9429 18.4881 10.9429C18.6379 10.9429 18.7794 10.9775 18.9054 11.0385L18.8994 11.0362L18.9002 11.0354Z" fill="white" fill-opacity="0.6"/>
</svg>
