<svg width="29" height="18" viewBox="0 0 29 18" fill="none" xmlns="http://www.w3.org/2000/svg">
<path d="M14.5002 9.25981e-05C10.545 -0.0133602 6.7588 1.43904 4.04005 4.33944C1.3212 7.23979 -0.27986 11.5721 0.0405503 17.096C0.0696021 17.5805 0.498925 18.0009 0.963547 18C9.98802 17.9141 19.0119 17.9664 28.0364 18C28.501 18 28.9304 17.5805 28.9594 17.096C29.2798 11.572 27.6803 7.2426 24.9599 4.34977C22.2396 1.45661 18.4448 0.0140403 14.4998 0.000609328L14.5002 9.25981e-05ZM13.5772 1.95878V4.17867C13.5703 4.68807 14.0126 5.15667 14.5002 5.15667C14.9879 5.15667 15.4301 4.68807 15.4232 4.17867V1.96888C17.7904 2.12941 20.0181 2.87443 21.8837 4.18878L20.5185 6.18758C20.2366 6.59788 20.3373 7.2391 20.7301 7.53372C21.1228 7.82833 21.7366 7.72295 22.0185 7.31265L23.3355 5.39408C24.9891 7.03123 26.2196 9.28143 26.5947 11.2498H24.5565C24.0732 11.2762 23.6563 11.7594 23.6815 12.2643C23.7067 12.7692 24.1694 13.2047 24.6527 13.1784H26.9601C27.0782 14.0864 27.1413 15.047 27.1234 16.0711L17.8654 16.031C17.8245 15.5956 17.71 15.1906 17.5385 14.8257L22.3359 8.2066L16.0004 13.2188C15.5253 12.9719 14.9983 12.8394 14.4525 12.847C12.3758 12.8167 11.1453 14.4241 11.1356 16.0312L1.87756 16.0714C1.85949 15.0488 1.91372 14.086 2.03143 13.1787H4.34851C4.83615 13.1858 5.28462 12.724 5.28462 12.2143C5.28462 11.7049 4.83614 11.2428 4.34851 11.25H2.39685C3.16664 8.96824 4.06958 6.70977 5.66552 5.384L6.98253 7.31267C7.26444 7.72297 7.8782 7.82835 8.27094 7.53374C8.66368 7.23913 8.76439 6.59788 8.48226 6.1876L7.10758 4.16859C8.97379 2.84978 11.2054 2.10568 13.578 1.9588L13.5772 1.95878ZM14.4808 14.7756C15.2992 14.7639 15.8844 15.157 16.0094 16.0312C15.0027 16.0139 13.9973 16.0247 12.9905 16.0312C13.1364 15.2128 13.8245 14.7929 14.4808 14.7756Z" fill="#FC641E"/>
</svg>
