<?xml version="1.0" encoding="UTF-8" standalone="no"?>
<!DOCTYPE svg PUBLIC "-//W3C//DTD SVG 1.1//EN" "http://www.w3.org/Graphics/SVG/1.1/DTD/svg11.dtd">
<svg width="100%" height="100%" viewBox="0 0 24 25" version="1.1" xmlns="http://www.w3.org/2000/svg" xmlns:xlink="http://www.w3.org/1999/xlink" xml:space="preserve" xmlns:serif="http://www.serif.com/" style="fill-rule:evenodd;clip-rule:evenodd;stroke-linejoin:round;stroke-miterlimit:2;">
    <g transform="matrix(1,0,0,1,0.407693,0.390583)">
        <path d="M22.889,15.02L20.808,13.818C21.018,12.686 21.018,11.524 20.808,10.391L22.889,9.19C23.128,9.053 23.235,8.77 23.157,8.506C22.615,6.768 21.692,5.195 20.486,3.887C20.301,3.687 19.998,3.638 19.764,3.774L17.683,4.976C16.809,4.224 15.804,3.643 14.715,3.262L14.715,0.864C14.715,0.591 14.524,0.352 14.256,0.293C12.464,-0.107 10.628,-0.088 8.924,0.293C8.655,0.352 8.465,0.591 8.465,0.864L8.465,3.267C7.381,3.652 6.375,4.233 5.496,4.981L3.421,3.779C3.181,3.643 2.884,3.687 2.698,3.892C1.492,5.195 0.569,6.768 0.027,8.511C-0.056,8.774 0.056,9.058 0.296,9.194L2.376,10.396C2.166,11.528 2.166,12.691 2.376,13.823L0.296,15.025C0.056,15.161 -0.051,15.444 0.027,15.708C0.569,17.446 1.492,19.019 2.698,20.327C2.884,20.527 3.186,20.576 3.421,20.44L5.501,19.238C6.375,19.99 7.381,20.571 8.47,20.952L8.47,23.355C8.47,23.628 8.66,23.867 8.929,23.926C10.721,24.326 12.557,24.307 14.261,23.926C14.529,23.867 14.72,23.628 14.72,23.355L14.72,20.952C15.804,20.567 16.809,19.985 17.688,19.238L19.768,20.44C20.008,20.576 20.305,20.532 20.491,20.327C21.697,19.023 22.62,17.451 23.162,15.708C23.235,15.44 23.128,15.156 22.889,15.02ZM11.59,16.011C9.436,16.011 7.683,14.258 7.683,12.105C7.683,9.951 9.436,8.198 11.59,8.198C13.743,8.198 15.496,9.951 15.496,12.105C15.496,14.258 13.743,16.011 11.59,16.011Z" style="fill:rgb(252,100,30);fill-rule:nonzero;"/>
    </g>
</svg>
