<?xml version="1.0" encoding="UTF-8" standalone="no"?>
<!DOCTYPE svg PUBLIC "-//W3C//DTD SVG 1.1//EN" "http://www.w3.org/Graphics/SVG/1.1/DTD/svg11.dtd">
<svg width="100%" height="100%" viewBox="0 0 26 21" version="1.1" xmlns="http://www.w3.org/2000/svg" xmlns:xlink="http://www.w3.org/1999/xlink" xml:space="preserve" xmlns:serif="http://www.serif.com/" style="fill-rule:evenodd;clip-rule:evenodd;">
    <path d="M2.454,5.421L1.424,5.421C1.24,5.421 1.067,5.483 0.94,5.611C0.812,5.738 0.75,5.911 0.75,6.095L0.75,6.098C0.793,9.913 2.702,13.517 5.852,15.649L6.263,19.307L6.264,19.317L6.266,19.328C6.326,19.63 6.578,19.91 6.935,19.91L18.805,19.91C19.162,19.91 19.414,19.63 19.474,19.328L19.476,19.317L19.477,19.307L19.888,15.65C23.079,13.519 24.99,9.955 24.99,6.095C24.99,5.911 24.927,5.738 24.8,5.611C24.673,5.483 24.5,5.421 24.316,5.421L23.205,5.421C22.963,4.435 22.204,3.659 21.237,3.413C20.27,2.202 18.633,1.716 17.194,2.232C16.283,1.111 14.655,0.845 13.449,1.692C13.378,1.74 13.319,1.787 13.267,1.828L13.267,1.829C11.474,0.28 8.737,0.404 7.117,2.165C6.756,2.064 6.402,2.03 6.087,2.03C4.168,2.03 2.584,3.533 2.454,5.421ZM13.767,3.177L13.782,3.163L13.793,3.147C14.269,2.489 15.135,2.311 15.823,2.783L15.826,2.784C16.037,2.925 16.218,3.139 16.328,3.353C16.365,3.452 16.423,3.532 16.504,3.592C16.581,3.65 16.667,3.682 16.733,3.704C16.885,3.754 17.118,3.784 17.301,3.626C18.327,3.034 19.652,3.34 20.337,4.329L20.35,4.348L20.366,4.364C20.37,4.368 20.374,4.372 20.378,4.376C20.451,4.449 20.593,4.594 20.81,4.606C21.24,4.698 21.617,4.967 21.826,5.336L3.809,5.336C3.943,4.272 4.912,3.377 6.087,3.377C6.388,3.377 6.734,3.453 7,3.567C7.276,3.7 7.614,3.627 7.812,3.364C8.874,1.989 10.836,1.715 12.209,2.732C12.407,2.891 12.566,3.05 12.736,3.219C12.968,3.452 13.384,3.56 13.683,3.262L13.767,3.177ZM18.421,16.495L18.199,18.562L7.541,18.562L7.318,16.495C10.813,18.237 14.926,18.237 18.421,16.495ZM23.629,6.769C23.285,12.143 18.588,16.443 12.87,16.443C7.154,16.443 2.496,12.145 2.113,6.769L23.629,6.769Z" style="fill:rgb(252,100,30);fill-rule:nonzero;stroke:rgb(252,100,30);stroke-width:0.5px;"/>
</svg>
