<?xml version="1.0" encoding="UTF-8" standalone="no"?>
<!DOCTYPE svg PUBLIC "-//W3C//DTD SVG 1.1//EN" "http://www.w3.org/Graphics/SVG/1.1/DTD/svg11.dtd">
<svg width="100%" height="100%" viewBox="0 0 29 19" version="1.1" xmlns="http://www.w3.org/2000/svg" xmlns:xlink="http://www.w3.org/1999/xlink" xml:space="preserve" xmlns:serif="http://www.serif.com/" style="fill-rule:evenodd;clip-rule:evenodd;stroke-linejoin:round;stroke-miterlimit:2;">
    <g transform="matrix(1,0,0,1,0,0.236096)">
        <path d="M12.229,12.29L9.456,12.29L7.784,15.442L12.229,12.29ZM9.451,6.23L12.217,6.23L7.783,3.087L9.451,6.23ZM18.569,10.612L18.569,7.909L8.816,7.909L4.399,9.057L4.399,9.462L8.816,10.611L18.569,10.611L18.569,10.612ZM22.218,9.792L22.218,8.739L21.38,7.909L20.264,7.909L20.264,10.619L21.384,10.619L22.218,9.792ZM23.399,10.988L22.078,12.298L19.589,12.298L21.783,14.685L25.009,14.686L26.715,16.33L25.537,17.529L24.327,16.365L21.039,16.365L17.897,12.944L15.824,17.346L14.053,17.48L13.563,18.528L12.027,17.826L12.935,15.885L14.712,15.749L16.342,12.29L15.136,12.29L7.784,17.504L2.391,14.239L0.808,15.096L0,13.627L2.44,12.307L6.298,14.643L7.677,12.044L2.706,10.752L2.706,7.769L7.673,6.477L6.299,3.886L2.441,6.222L0,4.901L0.807,3.432L2.39,4.288L7.783,1.024L15.126,6.23L16.338,6.23L14.712,2.779L12.935,2.642L12.027,0.702L13.563,0L14.053,1.047L15.824,1.183L17.896,5.584L21.038,2.163L24.327,2.163L25.537,0.999L26.715,2.198L25.009,3.842L21.783,3.842L19.59,6.23L22.081,6.23L23.395,7.531L25.389,7.435L28.06,5.292L29,6.437L25.948,8.887L23.912,8.984L23.912,9.533L25.948,9.632L29,12.082L28.06,13.227L25.389,11.084L23.399,10.988Z" style="fill:rgb(252,100,30);"/>
    </g>
</svg>
