<?xml version="1.0" encoding="UTF-8" standalone="no"?>
<!DOCTYPE svg PUBLIC "-//W3C//DTD SVG 1.1//EN" "http://www.w3.org/Graphics/SVG/1.1/DTD/svg11.dtd">
<svg width="100%" height="100%" viewBox="0 0 28 20" version="1.1" xmlns="http://www.w3.org/2000/svg" xmlns:xlink="http://www.w3.org/1999/xlink" xml:space="preserve" xmlns:serif="http://www.serif.com/" style="fill-rule:evenodd;clip-rule:evenodd;stroke-linejoin:round;stroke-miterlimit:2;">
    <path d="M4.424,20C4.617,19.997 4.79,19.88 4.864,19.701C4.937,19.523 4.898,19.318 4.764,19.179C-0.272,14.347 -0.272,5.653 4.764,0.821L4.764,0.821C4.95,0.632 4.95,0.329 4.762,0.142C4.575,-0.045 4.272,-0.046 4.084,0.141C2.353,1.871 1.109,4.027 0.475,6.391C-0.158,8.755 -0.158,11.245 0.475,13.609C1.109,15.973 2.353,18.128 4.084,19.859C4.174,19.949 4.296,20 4.424,20L4.424,20Z" style="fill:rgb(252,100,30);fill-rule:nonzero;"/>
    <path d="M23.122,0.141C22.935,0.328 22.935,0.633 23.122,0.82C28.159,5.652 28.158,14.347 23.122,19.179L23.122,19.179C22.936,19.367 22.937,19.671 23.124,19.858C23.311,20.045 23.614,20.045 23.802,19.859C29.212,14.67 29.211,5.33 23.802,0.141C23.712,0.051 23.59,0 23.462,0C23.335,0 23.213,0.051 23.122,0.141L23.122,0.141Z" style="fill:rgb(252,100,30);fill-rule:nonzero;"/>
    <path d="M6.804,2.861C6.987,2.672 6.984,2.372 6.799,2.186C6.613,2 6.313,1.998 6.124,2.181C1.834,6.297 1.834,13.704 6.124,17.82C6.313,18.001 6.612,17.997 6.797,17.812C6.982,17.627 6.985,17.328 6.804,17.14C2.887,13.382 2.887,6.619 6.804,2.861L6.804,2.861Z" style="fill:rgb(252,100,30);fill-rule:nonzero;"/>
    <path d="M21.423,17.96C21.551,17.961 21.673,17.91 21.763,17.82C26.053,13.704 26.053,6.297 21.763,2.181L21.763,2.181C21.574,2 21.275,2.003 21.09,2.188C20.905,2.373 20.902,2.672 21.083,2.861C25,6.619 25,13.381 21.083,17.139C20.949,17.278 20.91,17.483 20.984,17.661C21.058,17.84 21.23,17.957 21.423,17.96L21.423,17.96Z" style="fill:rgb(252,100,30);fill-rule:nonzero;"/>
    <path d="M8.504,15.92C8.697,15.917 8.87,15.8 8.943,15.621C9.017,15.443 8.978,15.238 8.844,15.099C7.5,13.743 6.745,11.91 6.745,10C6.745,8.09 7.5,6.257 8.844,4.9C9.024,4.711 9.021,4.413 8.836,4.228C8.651,4.044 8.353,4.04 8.164,4.221C6.641,5.758 5.786,7.835 5.786,10C5.786,12.165 6.641,14.242 8.164,15.78C8.254,15.87 8.377,15.92 8.504,15.92L8.504,15.92Z" style="fill:rgb(252,100,30);fill-rule:nonzero;"/>
    <path d="M19.383,15.92C19.51,15.92 19.633,15.87 19.723,15.779C21.246,14.242 22.101,12.165 22.101,10C22.101,7.835 21.246,5.758 19.723,4.22C19.534,4.039 19.235,4.042 19.049,4.227C18.864,4.412 18.861,4.712 19.043,4.9C20.387,6.257 21.141,8.09 21.141,10C21.141,11.91 20.387,13.743 19.043,15.099C18.909,15.238 18.87,15.443 18.943,15.621C19.017,15.8 19.19,15.917 19.383,15.92Z" style="fill:rgb(252,100,30);fill-rule:nonzero;"/>
    <path d="M10.543,13.88C10.736,13.877 10.909,13.76 10.983,13.582C11.057,13.403 11.018,13.198 10.883,13.06C10.073,12.247 9.618,11.147 9.618,10C9.618,8.852 10.073,7.752 10.883,6.94C11.065,6.751 11.063,6.451 10.877,6.266C10.692,6.08 10.392,6.078 10.203,6.26C9.213,7.252 8.657,8.597 8.657,10C8.657,11.402 9.213,12.747 10.203,13.739C10.293,13.83 10.416,13.88 10.543,13.88Z" style="fill:rgb(252,100,30);fill-rule:nonzero;"/>
    <path d="M17.683,6.26C17.495,6.077 17.194,6.08 17.009,6.265C16.823,6.451 16.821,6.752 17.003,6.94C17.814,7.752 18.269,8.853 18.269,10C18.269,11.147 17.814,12.248 17.003,13.06C16.911,13.149 16.858,13.273 16.857,13.402C16.856,13.531 16.906,13.654 16.997,13.746C17.089,13.837 17.213,13.887 17.342,13.887C17.471,13.885 17.594,13.833 17.683,13.74C18.674,12.747 19.23,11.402 19.23,10C19.23,8.598 18.674,7.253 17.683,6.26L17.683,6.26Z" style="fill:rgb(252,100,30);fill-rule:nonzero;"/>
    <path d="M16.347,10C16.247,6.823 11.64,6.824 11.539,10C11.64,13.177 16.247,13.176 16.347,10ZM12.501,10C12.501,9.485 12.776,9.009 13.222,8.751C13.669,8.493 14.218,8.493 14.665,8.751C15.111,9.009 15.386,9.485 15.386,10C15.386,10.515 15.111,10.991 14.665,11.249C14.218,11.507 13.668,11.507 13.222,11.249C12.776,10.991 12.501,10.515 12.501,10Z" style="fill:rgb(252,100,30);fill-rule:nonzero;"/>
</svg>
