<svg width="24" height="24" viewBox="0 0 24 24" fill="none" xmlns="http://www.w3.org/2000/svg">
<path fill-rule="evenodd" clip-rule="evenodd" d="M6.50191 3C6.23399 3 5.98 3.11936 5.80902 3.32563L3.20711 6.46444C3.07325 6.62592 3 6.82907 3 7.03881V18.8571C3 19.4255 3.24953 19.9705 3.69369 20.3724C4.13786 20.7742 4.74028 21 5.36842 21H18.6316C19.2597 21 19.8621 20.7742 20.3063 20.3724C20.7505 19.9705 21 19.4255 21 18.8571V7.03881C21 6.82907 20.9267 6.62592 20.7929 6.46444L18.191 3.32563C18.02 3.11936 17.766 3 17.4981 3H6.50191ZM19.5789 6.42857L17.4474 3.85714H6.55263L4.42105 6.42857H19.5789ZM3.94737 7.28571V18.8571C3.94737 19.1981 4.09709 19.5252 4.36358 19.7663C4.63008 20.0074 4.99153 20.1429 5.36842 20.1429H18.6316C19.0085 20.1429 19.3699 20.0074 19.6364 19.7663C19.9029 19.5252 20.0526 19.1981 20.0526 18.8571V7.28571H3.94737Z" fill="white" fill-opacity="0.6"/>
<path d="M6.59998 11.5501C6.59998 11.3016 6.80145 11.1001 7.04998 11.1001H16.95C17.1985 11.1001 17.4 11.3016 17.4 11.5501C17.4 11.7986 17.1985 12.0001 16.95 12.0001H7.04998C6.80145 12.0001 6.59998 11.7986 6.59998 11.5501Z" fill="white" fill-opacity="0.6"/>
</svg>
