<svg width="741" height="49" viewBox="0 0 741 49" xmlns="http://www.w3.org/2000/svg">
<g clip-path="url(#clip0_32_288)">
<path d="M10.5113 48.9576H65.1423C65.729 48.9576 66.1332 48.562 66.1332 47.9878V40.1784C66.1332 39.5914 65.729 39.1959 65.1423 39.1959H12.2975C11.2023 39.1959 10.3157 38.3282 10.3157 37.2563V29.4469H59.953C65.8333 29.4469 70.123 25.2487 70.123 19.4938V10.1276C70.123 4.37269 65.8333 0.174515 59.953 0.174515H10.5113C4.63095 0.174515 0.341309 4.37269 0.341309 10.1276V39.0045C0.341309 44.7594 4.63095 48.9576 10.5113 48.9576ZM10.3157 19.6852V11.8886C10.3157 10.8167 11.2023 9.93624 12.2975 9.93624H58.1537C59.2489 9.93624 60.1486 10.8167 60.1486 11.8886V17.7328C60.1486 18.8175 59.2489 19.6852 58.1537 19.6852H10.3157Z" fill="#385723"/>
<path d="M85.1527 48.9576H93.1322C93.732 48.9576 94.1362 48.562 94.1362 47.9878V11.8886C94.1362 10.8167 95.0228 9.93624 96.118 9.93624H141.974C143.069 9.93624 143.969 10.8167 143.969 11.8886V47.9878C143.969 48.562 144.373 48.9576 144.973 48.9576H152.94C153.539 48.9576 153.943 48.562 153.943 47.9878V10.1276C153.943 4.37269 149.654 0.174515 143.773 0.174515H94.3318C88.4514 0.174515 84.1618 4.37269 84.1618 10.1276V47.9878C84.1618 48.562 84.566 48.9576 85.1527 48.9576Z" fill="#385723"/>
<path d="M198.883 48.9576H206.863C207.463 48.9576 207.854 48.562 207.854 47.9878V9.93624H236.76C237.36 9.93624 237.764 9.54066 237.764 8.95368V1.15707C237.764 0.570089 237.36 0.174515 236.76 0.174515H168.973C168.386 0.174515 167.982 0.570089 167.982 1.15707V8.95368C167.982 9.54066 168.386 9.93624 168.973 9.93624H197.892V47.9878C197.892 48.562 198.284 48.9576 198.883 48.9576Z" fill="#385723"/>
<path d="M261.973 48.9576H311.415C317.295 48.9576 321.585 44.7594 321.585 39.0045V10.1276C321.585 4.37269 317.295 0.174515 311.415 0.174515H261.973C256.092 0.174515 251.803 4.37269 251.803 10.1276V39.0045C251.803 44.7594 256.092 48.9576 261.973 48.9576ZM263.759 39.1959C262.664 39.1959 261.777 38.3282 261.777 37.2563V11.8886C261.777 10.8167 262.664 9.93624 263.759 9.93624H309.615C310.71 9.93624 311.61 10.8167 311.61 11.8886V37.2563C311.61 38.3282 310.71 39.1959 309.615 39.1959H263.759Z" fill="#385723"/>
<path d="M369.615 48.3706C370.214 48.6641 370.814 48.6641 371.414 48.3706L401.22 30.5188C403.906 28.8599 405.405 26.2313 405.405 23.2071V1.15707C405.405 0.570089 405.001 0.174515 404.401 0.174515H396.435C395.835 0.174515 395.431 0.570089 395.431 1.15707V21.7396C395.431 22.3266 395.131 22.9136 394.635 23.2071L371.01 37.2563C370.71 37.4477 370.319 37.4477 370.019 37.2563L346.393 23.2071C345.885 22.9136 345.598 22.3266 345.598 21.7396V1.15707C345.598 0.570089 345.194 0.174515 344.594 0.174515H336.614C336.028 0.174515 335.623 0.570089 335.623 1.15707V23.2071C335.623 26.2313 337.123 28.8599 339.809 30.5188L369.615 48.3706Z" fill="#385723"/>
<path d="M429.614 48.9576H484.245C484.832 48.9576 485.236 48.562 485.236 47.9878V40.1784C485.236 39.5914 484.832 39.1959 484.245 39.1959H431.4C430.305 39.1959 429.418 38.3282 429.418 37.2563V29.4469H479.056C484.936 29.4469 489.226 25.2487 489.226 19.4938V10.1276C489.226 4.37269 484.936 0.174515 479.056 0.174515H429.614C423.733 0.174515 419.444 4.37269 419.444 10.1276V39.0045C419.444 44.7594 423.733 48.9576 429.614 48.9576ZM429.418 19.6852V11.8886C429.418 10.8167 430.305 9.93624 431.4 9.93624H477.256C478.351 9.93624 479.251 10.8167 479.251 11.8886V17.7328C479.251 18.8175 478.351 19.6852 477.256 19.6852H429.418Z" fill="#385723"/>
<path d="M504.255 48.9576H512.235C512.835 48.9576 513.239 48.562 513.239 47.9878V29.4469H549.121V39.0045C549.121 44.7594 553.41 48.9576 559.291 48.9576H568.065C568.652 48.9576 569.056 48.562 569.056 47.9878V40.1784C569.056 39.5914 568.652 39.1959 568.065 39.1959H561.077C559.982 39.1959 559.082 38.3282 559.082 37.2563V29.4469H562.876C568.756 29.4469 573.046 25.2487 573.046 19.4938V10.1276C573.046 4.37269 568.756 0.174515 562.876 0.174515H504.255C503.669 0.174515 503.264 0.570089 503.264 1.15707V47.9878C503.264 48.562 503.669 48.9576 504.255 48.9576ZM513.239 19.6852V9.93624H561.077C562.172 9.93624 563.072 10.8167 563.072 11.8886V17.7328C563.072 18.8175 562.172 19.6852 561.077 19.6852H513.239Z" fill="#385723"/>
<path d="M588.076 48.9576H646.697C652.577 48.9576 656.867 44.7594 656.867 39.0045V29.6383C656.867 23.8834 652.577 19.6852 646.697 19.6852H599.041C597.946 19.6852 597.059 18.8175 597.059 17.7328V11.8886C597.059 10.8167 597.946 9.93624 599.041 9.93624H651.886C652.473 9.93624 652.877 9.54066 652.877 8.95368V1.15707C652.877 0.570089 652.473 0.174515 651.886 0.174515H597.255C591.374 0.174515 587.085 4.37269 587.085 10.1276V19.4938C587.085 25.2487 591.374 29.4469 597.255 29.4469H644.897C645.992 29.4469 646.892 30.3274 646.892 31.3993V37.2563C646.892 38.3282 645.992 39.1959 644.897 39.1959H588.076C587.489 39.1959 587.085 39.5914 587.085 40.1784V47.9878C587.085 48.562 587.489 48.9576 588.076 48.9576Z" fill="#385723"/>
<path d="M681.075 48.9576H735.706C736.293 48.9576 736.697 48.562 736.697 47.9878V40.1784C736.697 39.5914 736.293 39.1959 735.706 39.1959H682.862C681.766 39.1959 680.88 38.3282 680.88 37.2563V29.4469H730.517C736.397 29.4469 740.687 25.2487 740.687 19.4938V10.1276C740.687 4.37269 736.397 0.174515 730.517 0.174515H681.075C675.195 0.174515 670.905 4.37269 670.905 10.1276V39.0045C670.905 44.7594 675.195 48.9576 681.075 48.9576ZM680.88 19.6852V11.8886C680.88 10.8167 681.766 9.93624 682.862 9.93624H728.718C729.813 9.93624 730.713 10.8167 730.713 11.8886V17.7328C730.713 18.8175 729.813 19.6852 728.718 19.6852H680.88Z" fill="#385723"/>
<path d="M295.855 27.2435C294.799 30.1912 288.449 33.1388 283.169 33.1388C277.875 33.1388 272.607 31.0716 272.607 28.124C272.607 27.1414 281.056 28.2261 286.337 26.261C289.284 25.1636 294.799 22.3308 295.855 23.3133C296.924 24.2959 295.855 27.2435 295.855 27.2435Z" fill="#385723"/>
<path d="M277.484 29.8594C277.119 30.6378 277.236 31.6076 277.366 32.2839C277.119 32.2073 276.858 32.118 276.623 32.0287C276.688 30.4081 277.484 29.8594 277.484 29.8594ZM291.813 30.944C291.239 30.2805 291.031 29.617 290.757 28.813C290.757 28.813 291.461 29.936 292.556 30.5357C292.309 30.6761 292.061 30.8164 291.813 30.944ZM286.493 29.9232C286.715 30.893 287.862 31.6841 288.775 32.1946C288.332 32.3349 287.875 32.4753 287.406 32.5901C286.089 31.5948 286.493 29.9232 286.493 29.9232ZM282.438 31.85C282.438 31.85 282.843 32.5008 283.39 33.1261C283.325 33.1388 283.247 33.1388 283.169 33.1388C282.96 33.1388 282.738 33.1261 282.53 33.1261C282.386 32.488 282.438 31.85 282.438 31.85Z" fill="#385723"/>
<path d="M270.547 27.3711C270.547 27.3711 273.39 28.2643 274.42 28.124C275.463 27.9836 275.202 30.306 274.289 29.8594C273.39 29.4255 271.525 29.3745 270.547 27.3711Z" fill="#385723"/>
<path d="M295.855 23.3133C295.855 23.3133 293.743 20.3657 288.123 21.5396C283.873 22.4456 279.987 25.2784 274.707 24.2959C274.707 24.2959 275.437 28.4302 283.899 28.4302C292.361 28.4302 297.537 25.4571 295.855 23.3133Z" fill="#385723"/>
<path d="M300.64 26.2609C297.941 26.2609 293.378 22.9687 293.404 20.6463C293.417 18.1453 297.028 17.2903 299.441 18.4133C301.853 19.5362 303.065 26.2609 300.64 26.2609Z" fill="#385723"/>
<path d="M300.458 20.4422C300.601 20.4422 300.731 20.3784 300.823 20.2636C301.057 19.9573 301.879 18.1708 295.451 13.1688C295.255 13.0284 294.981 13.0412 294.825 13.2198C294.669 13.3984 294.695 13.6537 294.877 13.794C300.562 18.2091 300.106 19.7787 300.092 19.7914C299.962 19.9828 300.001 20.238 300.21 20.3656C300.288 20.4167 300.366 20.4422 300.458 20.4422Z" fill="#385723"/>
<path d="M297.615 33.9555H299.675C300.158 33.9555 300.549 33.5982 300.549 33.1388C300.549 32.6922 300.158 32.3221 299.675 32.3221H298.345L294.369 28.6344C294.017 28.3026 293.469 28.3026 293.117 28.6344C292.778 28.9534 292.778 29.4638 293.117 29.7828L297.615 33.9555Z" fill="#385723"/>
<path d="M284.225 31.4162C284.407 31.4162 284.603 31.3779 284.785 31.3013C285.45 31.0078 285.737 30.2805 285.424 29.668L276.962 12.9518C276.649 12.3393 275.854 12.0841 275.202 12.3649C274.537 12.6583 274.25 13.3857 274.563 13.9982L283.025 30.7143C283.247 31.1609 283.729 31.4162 284.225 31.4162Z" fill="#385723"/>
<path d="M284.72 31.3524C282.399 31.9649 279.296 29.8594 278.41 26.58C277.523 23.3005 277.549 19.7149 276.676 18.0815C275.789 16.4482 277.523 16.7544 279.296 19.2044C281.056 21.6672 284.72 31.3524 284.72 31.3524Z" fill="#385723"/>
<path d="M298.906 21.2461C296.572 21.7693 298.046 24.2576 299.506 24.2576C301.644 24.2576 301.449 20.6719 298.906 21.2461Z" fill="#385723"/>
<path d="M271.447 33.9555H274.042C274.498 33.9555 274.876 33.6365 274.915 33.2027L276.636 13.5516C276.675 13.0922 276.323 12.6967 275.828 12.6584C275.346 12.6201 274.915 12.9646 274.876 13.4112L273.22 32.3222H271.447C270.965 32.3222 270.573 32.6922 270.573 33.1388C270.573 33.5982 270.965 33.9555 271.447 33.9555ZM277.484 33.9555H279.296C279.544 33.9555 279.792 33.8534 279.961 33.6748L285.516 27.7667L288.906 30.7782C289.258 31.0972 289.818 31.0844 290.144 30.7527C290.483 30.4336 290.47 29.9105 290.118 29.6042L286.076 25.993C285.907 25.8399 285.659 25.7506 285.424 25.7633C285.19 25.7761 284.968 25.8782 284.798 26.0441L278.892 32.3222H277.484C277.001 32.3222 276.597 32.6922 276.597 33.1388C276.597 33.5982 277.001 33.9555 277.484 33.9555Z" fill="#385723"/>
</g>
<defs>
<clipPath id="clip0_32_288">
<rect width="741" height="49" fill="white"/>
</clipPath>
</defs>
</svg>
