<svg width="17" height="18" viewBox="0 0 17 18" fill="none" xmlns="http://www.w3.org/2000/svg">
<path d="M8.63199 1.11595L15.66 7.28954C15.8761 7.4794 16 7.75315 16 8.04083L16 16.8C16 16.9105 15.9105 17 15.8 17H11.5125C11.402 17 11.3125 16.9117 11.3125 16.8013V13.2353C11.3125 12.3914 11.0162 11.7683 10.4887 11.2388C9.96129 10.7092 9.24592 10.4118 8.5 10.4118C7.75408 10.4118 7.03871 10.7092 6.51126 11.2388C5.98382 11.7683 5.6875 12.4864 5.6875 13.2353V16.8C5.6875 16.9105 5.59796 17 5.4875 17H1.2C1.08955 17 1 16.9105 1 16.8L1 8.04083C1 7.75315 1.1239 7.4794 1.34004 7.28954L8.36801 1.11595C8.44351 1.04963 8.5565 1.04963 8.63199 1.11595Z" stroke="white" stroke-opacity="0.6" stroke-width="1.2" stroke-linecap="round" stroke-linejoin="round"/>
</svg>
