<svg width="18" height="16" viewBox="0 0 18 16" fill="none" xmlns="http://www.w3.org/2000/svg">
<path fill-rule="evenodd" clip-rule="evenodd" d="M2.2071 5.40665C2.77117 4.39625 3.61763 3.43238 4.63097 2.66621C5.94428 1.67325 7.49724 1.04255 9.01874 1.04236C10.5086 1.04655 11.9592 1.49681 13.1717 2.32943C14.3841 3.16203 15.2983 4.33545 15.7918 5.68689C15.8865 5.94628 16.1736 6.07977 16.433 5.98506C16.6923 5.89034 16.8258 5.60328 16.7311 5.34389C16.1649 3.79332 15.1183 2.45311 13.7377 1.50507C12.3573 0.557166 10.7097 0.0469562 9.02077 0.0423584H9.01941C7.22828 0.0423584 5.46866 0.779199 4.02787 1.86855C2.98921 2.65386 2.09511 3.63805 1.4606 4.69995L1.15734 3.52546C1.0883 3.25809 0.815588 3.0973 0.548215 3.16634C0.280842 3.23537 0.120058 3.50809 0.189094 3.77546L0.806496 6.16661C0.810744 6.18307 0.815636 6.19918 0.821138 6.21495C0.848375 6.38657 0.964431 6.53913 1.13865 6.60484C1.25219 6.64767 1.37153 6.64649 1.47793 6.60978C1.4948 6.60719 1.51171 6.60386 1.5286 6.59977L4.00097 6.00131C4.26936 5.93635 4.43427 5.66611 4.36931 5.39771C4.30434 5.12932 4.0341 4.96441 3.76571 5.02938L2.2071 5.40665ZM17.1936 10.038C17.2882 9.77855 17.1545 9.49157 16.8951 9.39701C16.6356 9.30245 16.3487 9.43611 16.2541 9.69556C16.2155 9.8014 16.1747 9.90629 16.1316 10.0102L14.1559 10.4884L15.4772 11.256C14.947 12.0766 14.2623 12.801 13.4527 13.3889C12.1642 14.3246 10.6174 14.8723 9.00611 14.9614C7.52796 14.959 6.08743 14.5175 4.87918 13.6981C3.66748 12.8765 2.749 11.7155 2.24561 10.3748C2.14855 10.1163 1.86029 9.98541 1.60177 10.0825C1.34325 10.1795 1.21236 10.4678 1.30943 10.7263C1.88694 12.2644 2.93835 13.5903 4.31794 14.5258C5.69734 15.4612 7.33888 15.9617 9.01965 15.9614C9.02857 15.9614 9.03749 15.9612 9.0464 15.9607C10.8527 15.8636 12.5904 15.251 14.0403 14.1981C14.9621 13.5287 15.7417 12.7001 16.3428 11.7589L17.366 12.3533L16.9326 10.675C17.0278 10.4665 17.1149 10.2541 17.1936 10.038Z" fill="white" fill-opacity="0.6"/>
</svg>
