<svg width="20" height="11" viewBox="0 0 20 11" fill="none" xmlns="http://www.w3.org/2000/svg">
<path fill-rule="evenodd" clip-rule="evenodd" d="M12.2071 0.5C12.2071 0.223858 12.431 0 12.7071 0H18.8071C19.028 0 19.2071 0.179086 19.2071 0.4V6.5C19.2071 6.77614 18.9832 7 18.7071 7C18.431 7 18.2071 6.77614 18.2071 6.5V1.70711L10.9192 8.99497C10.8021 9.11213 10.6121 9.11213 10.495 8.99497L6.91924 5.41924C6.80208 5.30208 6.61213 5.30208 6.49497 5.41924L1.06066 10.8536C0.865398 11.0488 0.548816 11.0488 0.353553 10.8536C0.158291 10.6583 0.158291 10.3417 0.353553 10.1464L6.49497 4.00503C6.61213 3.88787 6.80208 3.88787 6.91924 4.00502L10.495 7.58076C10.6121 7.69792 10.8021 7.69792 10.9192 7.58076L17.5 1H12.7071C12.431 1 12.2071 0.776142 12.2071 0.5Z" fill="white" fill-opacity="0.6"/>
</svg>
