<svg width="24" height="24" viewBox="0 0 24 24" fill="none" xmlns="http://www.w3.org/2000/svg">
<g opacity="0.6">
<path d="M5.89001 14.9042C5.89001 14.124 5.89001 13.7338 6.0578 13.4432C6.16772 13.2528 6.3258 13.0947 6.51619 12.9848C6.80679 12.817 7.19695 12.817 7.97723 12.817H10.0645C10.8448 12.817 11.2349 12.817 11.5256 12.9848C11.7159 13.0947 11.874 13.2528 11.984 13.4432C12.1517 13.7338 12.1517 14.124 12.1517 14.9042V15.9479C12.1517 16.5298 12.1517 16.8208 12.1036 17.0627C11.9059 18.0562 11.1292 18.833 10.1357 19.0306C9.89375 19.0787 9.60277 19.0787 9.02087 19.0787C8.43897 19.0787 8.14799 19.0787 7.90603 19.0306C6.91248 18.833 6.13578 18.0562 5.93814 17.0627C5.89001 16.8208 5.89001 16.5298 5.89001 15.9479V14.9042Z" stroke="white"/>
<path d="M7.33508 11.468C7.33508 10.8396 7.33508 10.5254 7.43286 10.2775C7.56322 9.94704 7.81327 9.68449 8.12798 9.54761C8.36406 9.44495 8.66327 9.44495 9.26176 9.44495C9.86025 9.44495 10.1595 9.44495 10.3955 9.54761C10.7102 9.68449 10.9603 9.94704 11.0907 10.2775C11.1884 10.5254 11.1884 10.8396 11.1884 11.468V12.8166H7.33508V11.468Z" stroke="white"/>
<path d="M11.1885 8L9.74353 9.44501" stroke="white" stroke-linecap="round"/>
<path d="M7.33508 8L8.78009 9.44501" stroke="white" stroke-linecap="round"/>
<path d="M5.89002 15.707H3" stroke="white" stroke-linecap="round"/>
<path d="M15.0416 15.707H12.1516" stroke="white" stroke-linecap="round"/>
<path d="M14.0783 11.3721V12.0946C14.0783 13.2917 13.2157 14.2621 12.1516 14.2621" stroke="white" stroke-linecap="round"/>
<path d="M14.0783 19.5599C14.0783 18.4958 13.2157 17.6332 12.1516 17.6332" stroke="white" stroke-linecap="round"/>
<path d="M4.44507 11.3721V12.0946C4.44507 13.2917 5.09202 14.2621 5.89008 14.2621" stroke="white" stroke-linecap="round"/>
<path d="M4.44507 19.5599C4.44507 18.4958 5.09202 17.6332 5.89008 17.6332" stroke="white" stroke-linecap="round"/>
</g>
<path d="M18.5 19.5C18.5 19.7761 18.7239 20 19 20C19.2761 20 19.5 19.7761 19.5 19.5H18.5ZM19.3536 3.64645C19.1583 3.45119 18.8417 3.45119 18.6464 3.64645L15.4645 6.82843C15.2692 7.02369 15.2692 7.34027 15.4645 7.53553C15.6597 7.7308 15.9763 7.7308 16.1716 7.53553L19 4.70711L21.8284 7.53553C22.0237 7.7308 22.3403 7.7308 22.5355 7.53553C22.7308 7.34027 22.7308 7.02369 22.5355 6.82843L19.3536 3.64645ZM19.5 19.5V4H18.5V19.5H19.5Z" fill="white" fill-opacity="0.6"/>
</svg>
