<svg width="24" height="24" viewBox="0 0 24 24" fill="none" xmlns="http://www.w3.org/2000/svg">
<path d="M10.2609 4.5641L10.397 5.14845L10.8609 5.0404V4.5641H10.2609ZM7.74297 5.66108L7.32617 6.09268L7.67527 6.42981L8.07792 6.15888L7.74297 5.66108ZM6.02243 3.99958L6.43923 3.56798L6.43923 3.56798L6.02243 3.99958ZM5.88103 4.00205L5.44943 3.58526L5.44943 3.58526L5.88103 4.00205ZM3.70444 6.25598L3.27283 5.83919L3.27283 5.83919L3.70444 6.25598ZM3.70691 6.39738L4.1237 5.96578L4.1237 5.96578L3.70691 6.39738ZM5.44771 8.07846L5.96225 8.38709L6.20755 7.97813L5.86451 7.64686L5.44771 8.07846ZM4.54744 10.3333V10.9333H5.02854L5.1331 10.4637L4.54744 10.3333ZM4.54742 13.6666L5.13308 13.5362L5.02852 13.0666H4.54742V13.6666ZM5.61161 16.1826L6.03587 16.6069L6.38108 16.2617L6.11327 15.8535L5.61161 16.1826ZM3.89677 17.8975L3.47251 17.4732L3.4725 17.4732L3.89677 17.8975ZM3.89677 18.0389L4.32104 17.6146L4.32103 17.6146L3.89677 18.0389ZM6.11237 20.2545L6.53664 19.8302L6.53664 19.8302L6.11237 20.2545ZM6.25379 20.2545L5.82953 19.8302L5.82953 19.8302L6.25379 20.2545ZM8.00237 18.5059L8.31696 17.995L7.9133 17.7464L7.57811 18.0816L8.00237 18.5059ZM10.2609 19.4359H10.8609V18.9595L10.397 18.8515L10.2609 19.4359ZM13.5942 19.468L13.4695 18.8811L12.9942 18.9821V19.468H13.5942ZM16.1474 18.411L16.5642 17.9794L16.2211 17.6481L15.821 17.9075L16.1474 18.411ZM17.9498 20.1516L17.533 20.5832L17.533 20.5832L17.9498 20.1516ZM18.0912 20.1492L18.5228 20.566L18.5228 20.5659L18.0912 20.1492ZM20.2678 17.8952L20.6994 18.312L20.6994 18.312L20.2678 17.8952ZM20.2654 17.7538L19.8486 18.1854L19.8486 18.1854L20.2654 17.7538ZM18.4835 16.0331L17.9744 15.7157L17.7176 16.1276L18.0667 16.4647L18.4835 16.0331ZM19.4521 13.6666V13.0666H18.971L18.8664 13.5362L19.4521 13.6666ZM19.4521 10.3333L18.8664 10.4637L18.971 10.9333H19.4521V10.3333ZM18.5057 8.00258L18.0814 7.57832L17.7462 7.91352L17.9948 8.31717L18.5057 8.00258ZM20.2545 6.25377L19.8302 5.8295L19.8302 5.82951L20.2545 6.25377ZM20.2545 6.11235L19.8302 6.53661L19.8302 6.53662L20.2545 6.11235ZM18.0389 3.89675L18.4632 3.47248L18.4632 3.47248L18.0389 3.89675ZM17.8975 3.89675L18.3218 4.32101L18.3218 4.32101L17.8975 3.89675ZM16.1824 5.61182L15.8533 6.11349L16.2615 6.38129L16.6067 6.03608L16.1824 5.61182ZM13.5942 4.53193H12.9942V5.01785L13.4695 5.11883L13.5942 4.53193ZM10.8609 2.1C10.8609 2.37614 10.637 2.6 10.3609 2.6V1.4C9.97427 1.4 9.66087 1.7134 9.66087 2.1H10.8609ZM10.8609 4.5641V2.1H9.66087V4.5641H10.8609ZM8.07792 6.15888C8.77328 5.691 9.5563 5.34428 10.397 5.14845L10.1248 3.97974C9.13919 4.20931 8.22182 4.6157 7.40801 5.16328L8.07792 6.15888ZM5.60564 4.43119L7.32617 6.09268L8.15976 5.22948L6.43923 3.56798L5.60564 4.43119ZM6.31264 4.41885C6.12081 4.61749 5.80428 4.62301 5.60564 4.43119L6.43923 3.56798C6.16113 3.29942 5.71799 3.30716 5.44943 3.58526L6.31264 4.41885ZM4.13604 6.67278L6.31264 4.41885L5.44943 3.58526L3.27283 5.83919L4.13604 6.67278ZM4.1237 5.96578C4.32234 6.1576 4.32786 6.47414 4.13604 6.67278L3.27283 5.83919C3.00428 6.11728 3.01201 6.56043 3.29011 6.82899L4.1237 5.96578ZM5.86451 7.64686L4.1237 5.96578L3.29011 6.82899L5.03092 8.51007L5.86451 7.64686ZM5.1331 10.4637C5.29859 9.72046 5.58175 9.02146 5.96225 8.38709L4.93317 7.76984C4.48768 8.51257 4.15577 9.33166 3.96179 10.2029L5.1331 10.4637ZM2.1 10.9333H4.54744V9.73326H2.1V10.9333ZM2.6 10.4333C2.6 10.7094 2.37614 10.9333 2.1 10.9333V9.73326C1.7134 9.73326 1.4 10.0467 1.4 10.4333H2.6ZM2.6 13.5666V10.4333H1.4V13.5666H2.6ZM2.1 13.0666C2.37614 13.0666 2.6 13.2905 2.6 13.5666H1.4C1.4 13.9532 1.7134 14.2666 2.1 14.2666V13.0666ZM4.54742 13.0666H2.1V14.2666H4.54742V13.0666ZM6.11327 15.8535C5.65622 15.1569 5.31976 14.3746 5.13308 13.5362L3.96177 13.797C4.18061 14.7799 4.57498 15.6964 5.10994 16.5118L6.11327 15.8535ZM4.32104 18.3217L6.03587 16.6069L5.18734 15.7584L3.47251 17.4732L4.32104 18.3217ZM4.32103 17.6146C4.5163 17.8099 4.51629 18.1265 4.32104 18.3217L3.4725 17.4732C3.19915 17.7466 3.19914 18.1898 3.47251 18.4632L4.32103 17.6146ZM6.53664 19.8302L4.32104 17.6146L3.47251 18.4631L5.68811 20.6787L6.53664 19.8302ZM5.82953 19.8302C6.02479 19.635 6.34138 19.635 6.53664 19.8302L5.68811 20.6787C5.96147 20.9521 6.40469 20.9521 6.67806 20.6787L5.82953 19.8302ZM7.57811 18.0816L5.82953 19.8302L6.67806 20.6787L8.42664 18.9302L7.57811 18.0816ZM10.397 18.8515C9.65127 18.6778 8.95097 18.3854 8.31696 17.995L7.68778 19.0168C8.43001 19.4738 9.25058 19.8166 10.1248 20.0202L10.397 18.8515ZM10.8609 21.9V19.4359H9.66087V21.9H10.8609ZM10.3609 21.4C10.637 21.4 10.8609 21.6239 10.8609 21.9H9.66087C9.66087 22.2866 9.97427 22.6 10.3609 22.6V21.4ZM13.4942 21.4H10.3609V22.6H13.4942V21.4ZM12.9942 21.9C12.9942 21.6239 13.2181 21.4 13.4942 21.4V22.6C13.8808 22.6 14.1942 22.2866 14.1942 21.9H12.9942ZM12.9942 19.468V21.9H14.1942V19.468H12.9942ZM15.821 17.9075C15.1141 18.3658 14.3201 18.7004 13.4695 18.8811L13.7189 20.0549C14.716 19.8431 15.6463 19.4509 16.4737 18.9145L15.821 17.9075ZM18.3666 19.72L16.5642 17.9794L15.7306 18.8426L17.533 20.5832L18.3666 19.72ZM17.6596 19.7323C17.8515 19.5337 18.168 19.5282 18.3666 19.72L17.533 20.5832C17.8111 20.8518 18.2543 20.844 18.5228 20.566L17.6596 19.7323ZM19.8362 17.4784L17.6596 19.7324L18.5228 20.5659L20.6994 18.312L19.8362 17.4784ZM19.8486 18.1854C19.6499 17.9936 19.6444 17.6771 19.8362 17.4784L20.6994 18.312C20.968 18.0339 20.9603 17.5908 20.6822 17.3222L19.8486 18.1854ZM18.0667 16.4647L19.8486 18.1854L20.6822 17.3222L18.9003 15.6015L18.0667 16.4647ZM18.8664 13.5362C18.692 14.3198 18.3867 15.0543 17.9744 15.7157L18.9927 16.3505C19.4754 15.5762 19.8332 14.7156 20.0378 13.797L18.8664 13.5362ZM21.9 13.0666H19.4521V14.2666H21.9V13.0666ZM21.4 13.5666C21.4 13.2905 21.6239 13.0666 21.9 13.0666V14.2666C22.2866 14.2666 22.6 13.9532 22.6 13.5666H21.4ZM21.4 10.4333V13.5666H22.6V10.4333H21.4ZM21.9 10.9333C21.6239 10.9333 21.4 10.7094 21.4 10.4333H22.6C22.6 10.0467 22.2866 9.73326 21.9 9.73326V10.9333ZM19.4521 10.9333H21.9V9.73326H19.4521V10.9333ZM17.9948 8.31717C18.3967 8.96997 18.6948 9.69306 18.8664 10.4637L20.0377 10.2029C19.8366 9.29953 19.4872 8.45224 19.0166 7.688L17.9948 8.31717ZM19.8302 5.82951L18.0814 7.57832L18.93 8.42685L20.6788 6.67803L19.8302 5.82951ZM19.8302 6.53662C19.635 6.34135 19.635 6.02477 19.8302 5.8295L20.6788 6.67804C20.9521 6.40467 20.9521 5.96145 20.6788 5.68808L19.8302 6.53662ZM17.6146 4.32101L19.8302 6.53661L20.6788 5.68809L18.4632 3.47248L17.6146 4.32101ZM18.3218 4.32101C18.1265 4.51628 17.8099 4.51627 17.6146 4.32102L18.4632 3.47248C18.1898 3.19912 17.7466 3.19911 17.4732 3.47249L18.3218 4.32101ZM16.6067 6.03608L18.3218 4.32101L17.4732 3.47248L15.7582 5.18755L16.6067 6.03608ZM13.4695 5.11883C14.3331 5.30231 15.1383 5.64438 15.8533 6.11349L16.5116 5.11015C15.6747 4.56108 14.7312 4.16012 13.7189 3.94503L13.4695 5.11883ZM12.9942 2.1V4.53193H14.1942V2.1H12.9942ZM13.4942 2.6C13.2181 2.6 12.9942 2.37614 12.9942 2.1H14.1942C14.1942 1.7134 13.8808 1.4 13.4942 1.4V2.6ZM12.9457 2.6H13.4942V1.4H12.9457V2.6ZM10.8696 2.6H12.9457V1.4H10.8696V2.6ZM10.3609 2.6H10.8696V1.4H10.3609V2.6ZM15.25 11.9988C15.25 13.7943 13.7945 15.2497 11.999 15.2497V16.4497C14.4572 16.4497 16.45 14.457 16.45 11.9988H15.25ZM11.999 8.74789C13.7945 8.74789 15.25 10.2034 15.25 11.9988H16.45C16.45 9.54064 14.4572 7.54789 11.999 7.54789V8.74789ZM8.7481 11.9988C8.7481 10.2034 10.2036 8.74789 11.999 8.74789V7.54789C9.54085 7.54789 7.5481 9.54064 7.5481 11.9988H8.7481ZM11.999 15.2497C10.2036 15.2497 8.7481 13.7943 8.7481 11.9988H7.5481C7.5481 14.457 9.54085 16.4497 11.999 16.4497V15.2497Z" fill="white" fill-opacity="0.6"/>
</svg>
