<svg width="24" height="24" viewBox="0 0 24 24" fill="none" xmlns="http://www.w3.org/2000/svg">
<path d="M2.31559 19.1241L2.31562 19.124L2.30826 19.1194C2.18511 19.0427 2.0862 18.9326 2.02296 18.802L1.39294 19.1071L2.02296 18.802C1.96037 18.6728 1.93525 18.5287 1.95038 18.3859C2.15127 16.8185 2.91613 15.3777 4.10208 14.3331C5.28952 13.2872 6.81762 12.7102 8.40002 12.7102C9.98242 12.7102 11.5105 13.2872 12.698 14.3331C13.8851 15.3788 14.6503 16.8214 14.8503 18.3906C14.8839 18.6641 14.7504 18.9524 14.4842 19.1222L14.4831 19.1229C12.668 20.2861 10.5568 20.9029 8.401 20.8999L8.39886 20.8999C6.24278 20.9035 4.13114 20.287 2.31559 19.1241ZM18.0555 18.4751C18.0552 18.3161 18.0451 18.1555 18.0251 17.994L18.0251 17.9939C17.8465 16.5577 17.3483 15.1844 16.5722 13.9731C16.8819 13.9175 17.1972 13.893 17.5133 13.9004C18.1396 13.9151 18.7567 14.0548 19.3282 14.3113C19.8998 14.5678 20.4144 14.9359 20.8417 15.394C21.2677 15.8508 21.5985 16.3879 21.8147 16.9739C21.8356 17.035 21.8348 17.1014 21.8126 17.162C21.7899 17.2236 21.7465 17.2754 21.6898 17.3084L21.6897 17.3083L21.6802 17.314C20.5763 17.9796 19.3347 18.3759 18.0555 18.4751ZM17.3555 18.4999C17.3562 18.3617 17.348 18.2216 17.3304 18.0803C17.1554 16.6723 16.6491 15.3295 15.8574 14.1604L17.3555 18.4999ZM10.4506 8.05051C9.90677 8.59437 9.16915 8.8999 8.40002 8.8999C7.63089 8.8999 6.89327 8.59437 6.34941 8.05051C5.80555 7.50666 5.50002 6.76903 5.50002 5.9999C5.50002 5.23077 5.80555 4.49315 6.34941 3.94929C6.89327 3.40544 7.63089 3.0999 8.40002 3.0999C9.16915 3.0999 9.90677 3.40544 10.4506 3.94929C10.9945 4.49315 11.3 5.23077 11.3 5.9999C11.3 6.76903 10.9945 7.50666 10.4506 8.05051ZM19.0264 9.42625C18.595 9.85758 18.01 10.0999 17.4 10.0999C16.79 10.0999 16.205 9.85758 15.7737 9.42625C15.3423 8.99491 15.1 8.4099 15.1 7.7999C15.1 7.1899 15.3423 6.60489 15.7737 6.17356C16.205 5.74222 16.79 5.4999 17.4 5.4999C18.01 5.4999 18.595 5.74222 19.0264 6.17356C19.4577 6.60489 19.7 7.1899 19.7 7.7999C19.7 8.4099 19.4577 8.99492 19.0264 9.42625Z" stroke="white" stroke-opacity="0.6" stroke-width="1.4"/>
</svg>
